<svg xmlns="http://www.w3.org/2000/svg" width="387.855" height="285.011" viewBox="0 0 387.855 285.011"><g transform="translate(-57.627 -46.336)"><path d="M166.681,179.267a11.912,11.912,0,0,0,6.068,10.922c.383.224,3.64-2.3,4.087-2.587.958-.607,1.917-1.245,2.843-1.884a7.688,7.688,0,0,1,1.181-.8A11.915,11.915,0,0,1,174.792,174a9.422,9.422,0,0,1-1.213.735c-.958.606-1.916,1.213-2.874,1.852-.959.607-1.917,1.246-2.843,1.884-.191.128-1.15.639-1.181.8Z" fill="#fa7697"/><path d="M234.161,184.5a9.75,9.75,0,0,0,10.922,8.815,8.063,8.063,0,0,0,.575-1.277c.447-1.055.894-2.108,1.341-3.13.447-1.054.862-2.108,1.309-3.162a7.548,7.548,0,0,1,.511-1.31,9.75,9.75,0,0,1-10.922-8.814,6.039,6.039,0,0,1-.575,1.278c-.447,1.054-.894,2.107-1.341,3.129-.447,1.054-.862,2.108-1.309,3.162-.128.319-.543.958-.511,1.309Z" fill="#ffbc1f"/><path d="M118.02,110.128a44.353,44.353,0,0,0-5.191-3.563,6.631,6.631,0,0,0-2.992-1.3,4.353,4.353,0,0,0-4.62,4.2,5.264,5.264,0,0,0,.792.55c.638.44,1.3.88,1.958,1.32s1.3.858,1.958,1.3c.088.066.836.462.814.528a4.357,4.357,0,0,1,6.533-3.608c-.132-.088-.264-.154-.4-.242-1.474-.968-2.925-1.913-4.4-2.881a23.211,23.211,0,0,0,2.749,1.869,30.509,30.509,0,0,1,2.794,1.826Z" fill="#ff8164"/><path d="M284.42,132.284a16.81,16.81,0,0,0,13.477,8.335,6.744,6.744,0,0,0,.958-1.054c.766-.862,1.5-1.692,2.236-2.554s1.5-1.725,2.235-2.587c.128-.16.767-1.086.894-1.086A16.81,16.81,0,0,1,290.743,125c.1.16-2.938,3.29-3.193,3.609-.288.32-3.322,3.354-3.13,3.673Z" fill="#ffbc1f"/><path d="M303.138,61.836a9.349,9.349,0,0,0-4.883-7.332,3.849,3.849,0,0,0-.729.311c-.586.259-1.15.508-1.721.774s-1.157.525-1.728.79a3.562,3.562,0,0,1-.7.342,9.346,9.346,0,0,1,4.882,7.332c-.011-.1,2.247-.983,2.45-1.085a11.866,11.866,0,0,0,2.432-1.132Z" fill="#ffbc1f"/><path d="M400.115,171.534c-.77,1.424-1.558,2.848-2.328,4.271.039-.057,2.578.751,2.79.808a19.274,19.274,0,0,0,2.808.751c.77-1.424,1.559-2.848,2.328-4.271-.038.057-3.732-3.925-3.963-3.983s-1.577,2.29-1.635,2.424Z" fill="#fa7697"/><path d="M134.474,274.575a8.634,8.634,0,0,0-7.408,9.8,34.366,34.366,0,0,0,1.5,4.589,29.763,29.763,0,0,1,1.59,4.548,8.622,8.622,0,0,1,7.408-9.8c-.1.013-1.4-4.215-1.5-4.589s-1.317-4.57-1.589-4.547Z" fill="#fa7697"/><path d="M440.253,214.645c-.354-3.582-.708-7.188-1.038-10.771a20.246,20.246,0,0,0-2.969-.4c-.236-.023-2.97-.259-2.97-.353.354,3.582.707,7.188,1.037,10.771a20.282,20.282,0,0,0,2.97.4c.235.047,2.97.282,2.97.353Z" fill="#ffbc1f"/><path d="M107.846,161.076c-2.878-1.087-5.756-2.2-8.656-3.283.085.043-.256,2.942-.277,3.219a17.373,17.373,0,0,0-.214,3.22c2.879,1.087,5.757,2.2,8.657,3.283-.085-.042.256-2.942.277-3.219.043-.3.427-3.156.213-3.22Z" fill="#3f67f2"/><path d="M397.08,246.69c2.076,2.236,4.12,4.471,6.2,6.707.191.191,7.377-6.2,7.473-6.1-2.076-2.236-4.12-4.471-6.2-6.707-.191-.191-7.409,6.2-7.473,6.1Z" fill="#3f67f2"/><path d="M365.959,255.824c3.031-.344,6.044-.662,9.075-1.006.268-.041-.608-9.615-.474-9.635-3.032.344-6.044.662-9.075,1.006-.268.041.589,9.641.474,9.635Z" fill="#3f67f2"/><path d="M95.126,203.52c.223.831.479,1.661.7,2.492.256.862.16.638.862.8a5.4,5.4,0,0,0,1.6-.064l6.036-.191c.479,0,.575-9.613.894-9.613l-6.036.191c-.415,0-.83.032-1.277.032-.319,0-.639.032-.958.032-.064-.191-.1-.383-.16-.543a15.477,15.477,0,0,1-.8-2.778,8.531,8.531,0,0,1-.16,1.4c-.128,1.118-.223,2.267-.319,3.385s-.224,2.268-.288,3.385a4.7,4.7,0,0,0-.1,1.469Z" fill="#30d6af"/><path d="M242.316,157.413c.224,2.363.416,4.726.639,7.09a15.144,15.144,0,0,0,3.066.926,21.532,21.532,0,0,1,3.1.862c-.224-2.363-.415-4.726-.639-7.09a15.124,15.124,0,0,0-3.066-.926,18.065,18.065,0,0,1-3.1-.862Z" fill="#fa7697"/><path d="M57.627,268.242c1.022,2.587,2.044,5.206,3.066,7.793.159.383,2.682.8,3.1.926s2.97.479,3.1.862c-1.022-2.586-2.044-5.2-3.066-7.792-.159-.383-2.682-.8-3.1-.926-.384-.128-2.938-.511-3.1-.863Z" fill="#ffbc1f"/><path d="M121.723,246.914c2.107,1.533,4.215,3.1,6.323,4.631.287.223,4.311-4.727,4.567-4.535-2.108-1.533-4.216-3.1-6.324-4.631-.319-.255-4.343,4.7-4.566,4.535Z" fill="#ff8164"/><path d="M186.587,121.676c2.332,1.118,4.695,2.2,7.026,3.321.192.1,3.066-5.652,3.194-5.588-2.331-1.118-4.7-2.2-7.026-3.322-.192-.1-3.1,5.621-3.194,5.589Z" fill="#ff8164"/><path d="M190.36,59.868c1.214.582,2.444,1.147,3.657,1.728.1.05,1.6-2.942,1.662-2.908-1.213-.582-2.443-1.147-3.656-1.729-.1-.05-1.613,2.926-1.663,2.909Z" fill="#ff8164"/><path d="M384.577,199.247a4.114,4.114,0,0,0,5.174,3.673c.159-.032.607-.639.638-.671.512-.543,1.022-1.118,1.533-1.661.511-.574,1.022-1.117,1.533-1.692.128-.16.448-.671.607-.7a4.111,4.111,0,0,1-5.173-3.672,6.834,6.834,0,0,1-.639.67c-.511.543-1.022,1.118-1.533,1.661-.511.575-1.022,1.118-1.533,1.693-.1.1-.607.542-.607.7Z" fill="#fa7697"/><path d="M77.51,205.058a5.3,5.3,0,0,0,2.088,4.827,8.537,8.537,0,0,0,1.472-.89,12.7,12.7,0,0,1,1.455-.924,5.3,5.3,0,0,1-2.088-4.827c-.017.171-1.3.77-1.472.89-.2.137-1.421.667-1.455.924Z" fill="#30d6af"/><path d="M189.557,195.626c-.862-3.417-1.692-6.866-2.554-10.284,0-.064-6.26,1.469-6.26,1.5.862,3.418,1.693,6.867,2.555,10.284,0,.032,6.259-1.469,6.259-1.5Z" fill="#ffbc1f"/><path d="M147.94,180.5c.415,3.226.83,6.451,1.277,9.645.032.351,6.387-.192,6.419.064-.415-3.226-.83-6.451-1.277-9.645-.032-.351-6.388.191-6.419-.064Z" fill="#ff8164"/><path d="M169.022,141.061c3.194.927,6.388,1.821,9.613,2.747-.1-.032,0-2.938,0-3.226a17.651,17.651,0,0,0-.064-3.225c-3.193-.926-6.387-1.82-9.613-2.747.1.032,0,2.938,0,3.226-.031.319-.159,3.193.064,3.225Z" fill="#ff8164"/><path d="M177.992,92.937c-.283,3.314-.535,6.62-.812,9.965.013-.1,2.882-.575,3.163-.632a17.616,17.616,0,0,0,3.151-.694c.283-3.313.535-6.62.812-9.964-.013.1-2.881.575-3.163.631-.32.031-3.164.469-3.151.694Z" fill="#ffbc1f"/><path d="M382.9,146.714c-.447,3.641-.862,7.282-1.309,10.922.032-.223,6.387.288,6.419,0,.447-3.64.863-7.281,1.31-10.922-.032.192-6.388-.287-6.42,0Z" fill="#fa7697"/><path d="M342.693,162.81c.542,2.97,1.117,5.972,1.66,8.942.032.256,2.811.735,3.13.8.287.064,3.1.511,3.13.734-.543-2.97-1.118-5.972-1.661-8.942-.032-.256-2.81-.734-3.13-.8s-3.1-.511-3.129-.735Z" fill="#fa7697"/><path d="M319.155,143.712c-1.884,3.034-3.768,6.068-5.652,9.07a30.008,30.008,0,0,1,3.129.7c.288.064,3.034.862,3.162.638,1.884-3.033,3.769-6.067,5.653-9.069a30.283,30.283,0,0,1-3.13-.7c-.287-.064-3.034-.862-3.162-.639Z" fill="#3f67f2"/><path d="M307.4,106.873c-.383,3.226-.8,6.452-1.182,9.677-.032.383,6.228,1.5,6.164,1.789.383-3.226.8-6.452,1.182-9.677.064-.383-6.2-1.5-6.164-1.789Z" fill="#3f67f2"/><path d="M274.056,89.519a11.481,11.481,0,0,0,3.193,9.645,17.837,17.837,0,0,0,2.939-1.341,23.858,23.858,0,0,1,2.906-1.406,11.346,11.346,0,0,1-3.194-9.644c-.032.255-2.619,1.181-2.938,1.341-.383.192-2.842,1.022-2.906,1.4Z" fill="#ff8164"/><path d="M217.437,61.7a7.119,7.119,0,0,0,2.248,7.292c.334.287,1.96.1,2.414.1.574.024,1.124.024,1.7.048.119,0,.621-.072.717,0a7.086,7.086,0,0,1-2.247-7.291c-.1.334-4.71-.526-4.83-.144Z" fill="#30d6af"/><path d="M404.656,222.914a12.677,12.677,0,0,0,9.772,1.629c.7-.16,1.789-1.757,2.3-2.236.543-.542,1.086-1.086,1.6-1.628.127-.128.479-.639.638-.671a12.677,12.677,0,0,1-9.772-1.629c-.447-.287-4.184,4.759-4.535,4.535Z" fill="#ff8164"/><path d="M59.325,185.587a4.312,4.312,0,0,0,3.289,3.137A4.936,4.936,0,0,0,63,188.4c.306-.272.611-.526.916-.8s.61-.526.9-.8c.051-.051.322-.356.373-.339a4.338,4.338,0,0,1-3.29-3.137,9.728,9.728,0,0,1-1.288,1.119c-.153.119-1.34.966-1.289,1.136Z" fill="#ffbc1f"/><path d="M413.911,268.392a7.845,7.845,0,0,1-4.024,9.1c.287-.16,2.523,1.213,2.906,1.4.415.192,2.491,1.533,2.938,1.341a7.807,7.807,0,0,0,4.024-9.1c-.128-.415-2.491-1.181-2.906-1.4-.7-.319-1.373-.639-2.076-.958a5.666,5.666,0,0,1-.862-.383Z" fill="#ff8164"/><path d="M440.968,258.877a5.768,5.768,0,0,1-2.959,6.692c.211-.118,1.855.892,2.137,1.033.3.141,1.831,1.127,2.16.986a5.739,5.739,0,0,0,2.958-6.692c-.093-.3-1.831-.868-2.136-1.033-.517-.235-1.01-.469-1.527-.7a4.2,4.2,0,0,1-.633-.282Z" fill="#ff8164"/><path d="M237.877,132.918c2.811,1.245,5.621,2.459,8.431,3.7-.1-.032.32-2.938.32-3.193.032-.288.479-3.1.255-3.194-2.81-1.246-5.62-2.459-8.431-3.705.1.032-.319,2.938-.319,3.194,0,.287-.479,3.1-.256,3.194Z" fill="#30d6af"/><path d="M100.794,139.209a4.271,4.271,0,0,1-2.58,5.267c.235-.086,1.621.874,1.9,1.023l1.343.7c.086.042.469.319.555.277a4.243,4.243,0,0,0,2.579-5.267c-.106-.319-1.577-.853-1.9-1.023l-1.343-.7a2.658,2.658,0,0,1-.555-.277Z" fill="#ff8164"/><path d="M72,161.162l4.8,4.221c-.043-.042.832-1.791.917-1.94a10.916,10.916,0,0,0,.874-1.962l-4.8-4.221c.042.042-.832,1.791-.917,1.94A10.3,10.3,0,0,0,72,161.162Z" fill="#ffbc1f"/><path d="M86.087,146.509c1.32.652,2.64,1.3,3.943,1.955.2.1,1.809-2.705,1.956-2.64-1.32-.652-2.64-1.3-3.944-1.955-.195-.081-1.808,2.721-1.955,2.64Z" fill="#30d6af"/><path d="M96.355,170.23c2,.426,4.009.852,6.013,1.257.319.064,1.471-3.987,1.727-3.944-2-.426-4.009-.853-6.013-1.258-.32-.064-1.471,4.008-1.727,3.945Z" fill="#ff8164"/><path d="M357.523,103.468a6.879,6.879,0,0,0,2.885,4.793,8.094,8.094,0,0,0,1.36-.978,11.972,11.972,0,0,1,1.344-.995,6.85,6.85,0,0,1-2.886-4.793,9.223,9.223,0,0,1-1.36.978c-.166.117-1.36.813-1.343,1Z" fill="#30d6af"/><path d="M267.03,175.744a9.348,9.348,0,0,0,7.218,6.356,16.541,16.541,0,0,0,1.724-2.715,19.481,19.481,0,0,1,1.693-2.746,9.5,9.5,0,0,1-7.218-6.356c.1.32-1.532,2.364-1.724,2.715-.415.639-.8,1.277-1.214,1.916-.1.16-.511.7-.479.83Z" fill="#fa7697"/><path d="M206.858,205.066c-.894,2.842-1.756,5.685-2.65,8.527a18.028,18.028,0,0,1,3.193-.415c.352-.064,3.1-.192,3.194-.479.894-2.843,1.757-5.685,2.651-8.527a18.119,18.119,0,0,1-3.194.415c-.351.032-3.13.192-3.194.479Z" fill="#ff8164"/><path d="M78.69,234.308c2.491,2.427,4.982,4.886,7.473,7.314.064.063,4.567-4.5,4.567-4.535-2.491-2.428-4.982-4.887-7.473-7.314-.064-.064-4.567,4.5-4.567,4.535Z" fill="#3f67f2"/><path d="M395.962,220.447c-.415-1.085-.862-2.139-1.277-3.225a5.766,5.766,0,0,1-.383.862c-.32.7-.607,1.4-.895,2.076-.287.7-.607,1.4-.894,2.108-.064.159-.415.734-.351.862.415,1.086.862,2.14,1.277,3.226a5.732,5.732,0,0,1,.383-.863c.32-.7.607-1.4.9-2.075.287-.7.606-1.406.894-2.108.1-.16.415-.735.351-.863Z" fill="#ff8164"/><path d="M375.47,218.238c-.61-2.867-1.2-5.705-1.815-8.571.071.4-5.959,2.141-5.871,2.639.61,2.866,1.205,5.7,1.814,8.571-.1-.383,5.96-2.142,5.872-2.639Z" fill="#ff8164"/><path d="M260.137,72.6h6.419c.16,0,.256-4.822.32-4.822h-6.42c-.127,0-.255,4.822-.319,4.822Z" fill="#fa7697"/><path d="M246.987,94.023h6.419c.159,0,.255-4.823.319-4.823h-6.419c-.128,0-.256,4.823-.319,4.823Z" fill="#fa7697"/><path d="M368.3,184.271c2.108.735,4.248,1.437,6.356,2.172a16.579,16.579,0,0,0,1.437-1.916,22.227,22.227,0,0,1,1.4-1.948c-2.108-.735-4.247-1.437-6.355-2.172a16.552,16.552,0,0,0-1.437,1.916c-.128.128-1.31,1.98-1.406,1.948Z" fill="#30d6af"/><path d="M199.5,141.53a7.55,7.55,0,0,0,7.761,4.311,10.816,10.816,0,0,0,.766-2.3,12.235,12.235,0,0,1,.7-2.3,7.577,7.577,0,0,1-7.761-4.312c.16.32-.639,1.948-.766,2.3-.128.416-.894,1.885-.7,2.3Z" fill="#3f67f2"/><path d="M393.959,269.778a4.432,4.432,0,0,0,4.216,5.941c.479-.032,1.533-1.182,1.884-1.5.447-.352.894-.7,1.309-1.086.1-.1.416-.448.543-.448a4.443,4.443,0,0,1-4.215-5.94,2.166,2.166,0,0,1-.575.416l-1.341,1.053c-.447.352-.895.7-1.31,1.086-.1.128-.447.32-.511.479Z" fill="#ff8164"/><path d="M418.515,120.942c1.1,1.037,2.215,2.075,3.313,3.113.08.08,2.215-2.036,2.255-2-1.1-1.038-2.215-2.075-3.313-3.113-.08-.08-2.195,2.035-2.255,2Z" fill="#30d6af"/><path d="M420.123,155.891a4.872,4.872,0,0,0,5.748.7,12.7,12.7,0,0,0-.159-2.395,13.352,13.352,0,0,1-.224-2.4,4.872,4.872,0,0,1-5.748-.7,6.094,6.094,0,0,1,.031.7c.032.575.1,1.15.128,1.693.032.575.1,1.15.128,1.693.032.127,0,.638.1.7Z" fill="#ff8164"/><path d="M135.735,100.857a4.874,4.874,0,0,0,5.749.7,12.792,12.792,0,0,0-.16-2.395,13.447,13.447,0,0,1-.224-2.4,4.872,4.872,0,0,1-5.748-.7,5.906,5.906,0,0,1,.032.7c.032.575.1,1.15.127,1.693.032.575.1,1.15.128,1.693.032.127,0,.606.1.7Z" fill="#ff8164"/><path d="M230.749,203.591a4.873,4.873,0,0,0,5.749.7,12.8,12.8,0,0,0-.16-2.4,13.428,13.428,0,0,1-.224-2.395,4.874,4.874,0,0,1-5.748-.7,5.9,5.9,0,0,1,.032.7c.032.575.1,1.15.128,1.693.031.574.1,1.149.127,1.692.032.128,0,.639.1.7Z" fill="#ff8164"/><path d="M363.6,147.9a7.16,7.16,0,0,0,7.026,5.238c.255,0,1.086-1.852,1.213-2.076s.959-2.108,1.182-2.108a7.09,7.09,0,0,1-7.026-5.237c.1.319-1.054,1.788-1.214,2.076-.191.351-1.277,1.692-1.181,2.107Z" fill="#30d6af"/><path d="M342.07,144.263a7.932,7.932,0,0,0,3.418,6.164,13.771,13.771,0,0,0,1.948-1.437,17.107,17.107,0,0,1,1.916-1.469,7.891,7.891,0,0,1-3.417-6.164c0,.224-1.725,1.277-1.948,1.437-.256.192-1.917,1.15-1.917,1.469Z" fill="#30d6af"/><path d="M388.425,128.926v8.367c0,.319,4.759.607,4.759.862v-8.367c0-.32-4.759-.607-4.759-.862Z" fill="#ff8164"/><path d="M63.536,225.118c-.415,3.226-.862,6.419-1.277,9.645,0-.1,4.791.415,4.823.223.415-3.225.862-6.419,1.277-9.644-.032.1-4.823-.384-4.823-.224Z" fill="#ff8164"/><path d="M80.99,267.386c2.4.958,4.79,1.948,7.217,2.906a21.9,21.9,0,0,1,.128-2.395,12.477,12.477,0,0,0,.1-2.395c-2.395-.959-4.79-1.948-7.218-2.907a21.915,21.915,0,0,1-.127,2.4,12.472,12.472,0,0,0-.1,2.395Z" fill="#fa7697"/><path d="M402.408,201.981c6.259-.1,12.487-.224,18.746-.32.352,0-.064-6.77.064-6.77-6.259.1-12.487.223-18.747.319-.351,0,.032,6.771-.063,6.771Z" fill="#3f67f2"/><path d="M426.46,169.138q-2.581,4.375-5.161,8.751c.175-.274,6.781,3.166,7.006,2.792l5.16-8.751c-.174.274-6.806-3.166-7.005-2.792Z" fill="#3f67f2"/><path d="M312.086,189.871a13.256,13.256,0,0,0,5.557,9.23,15.661,15.661,0,0,0,2.619-1.885,23.337,23.337,0,0,1,2.587-1.916,13.189,13.189,0,0,1-5.557-9.23,17.863,17.863,0,0,1-2.619,1.885c-.287.223-2.619,1.565-2.587,1.916Z" fill="#fa7697"/><path d="M425.64,245.907c-.734,2.779-1.437,5.525-2.171,8.3-.032.127,4.6,1.437,4.566,1.5.735-2.779,1.438-5.525,2.172-8.3.064-.127-4.567-1.437-4.567-1.5Z" fill="#ff8164"/><path d="M381.048,237.222c.894,3.194,1.789,6.419,2.683,9.613.127.479,4.726-.319,4.822.1-.894-3.194-1.788-6.42-2.682-9.613-.128-.479-4.727.319-4.823-.1Z" fill="#fa7697"/><path d="M429.713,228.059c.894,3.194,1.788,6.42,2.683,9.613.127.479,4.726-.319,4.822.1-.894-3.194-1.788-6.419-2.683-9.613-.127-.479-4.726.32-4.822-.1Z" fill="#fa7697"/><path d="M345.9,197.493l7.09,1.821c-.416-.1.287-4.695-.192-4.823l-7.09-1.82c.415.127-.287,4.726.192,4.822Z" fill="#ff8164"/><path d="M297.63,162.171c1.948.863,3.865,1.693,5.813,2.555a13.7,13.7,0,0,1-.192-2.4c-.032-.287,0-2.3-.223-2.395-1.949-.862-3.865-1.693-5.813-2.555a13.714,13.714,0,0,1,.192,2.4c.032.288,0,2.3.223,2.4Z" fill="#ff8164"/><path d="M288.118,205.857a5.6,5.6,0,0,0,4.479-4.078c.081-.318-1.2-1.7-1.378-1.983-.323-.477-.669-.914-.991-1.391a4.329,4.329,0,0,1-.409-.553,5.574,5.574,0,0,1-4.479,4.078,14.074,14.074,0,0,1,1.378,1.983c.118.2,1.176,1.97,1.4,1.944Z" fill="#ff8164"/><path d="M201.933,176.831c-.416,2.874-.831,5.78-1.246,8.654-.032.224,9.485,1.789,9.453,1.885.415-2.875.831-5.781,1.246-8.655.064-.256-9.453-1.789-9.453-1.884Z" fill="#fa7697"/><path d="M272.273,143.643,260.2,138.757c.383.159-2.747,9.165-2.236,9.389l12.072,4.886c-.383-.16,2.779-9.2,2.236-9.389Z" fill="#3f67f2"/><path d="M253.7,48.618l-5.639-2.282c.179.074-1.283,4.281-1.044,4.385L252.652,53c-.179-.074,1.3-4.3,1.044-4.385Z" fill="#3f67f2"/><path d="M170.108,153.517c.288,3.193.607,6.387.894,9.581.032.191,6.42-.288,6.42-.192-.288-3.194-.607-6.387-.9-9.581,0-.192-6.419.256-6.419.192Z" fill="#30d6af"/><path d="M129.868,160.461c0,2.81-.032,5.652-.032,8.463,0,.032,4.823.064,4.823.032,0-2.811.032-5.653.032-8.463,0-.064-4.823-.064-4.823-.032Z" fill="#fa7697"/><path d="M223.681,114.429a8.13,8.13,0,0,0-.7,8.559,10.238,10.238,0,0,0,2.427,0,12.516,12.516,0,0,1,2.427-.032,8.2,8.2,0,0,1,.7-8.559,10.238,10.238,0,0,1-2.427,0c-.351,0-2.236-.223-2.427.032Z" fill="#ff8164"/><path d="M268.185,113.532c-2.842-.319-5.685-.638-8.527-.926-.128,0-.767,4.759-.83,4.759,2.842.319,5.684.638,8.527.926.127.032.766-4.759.83-4.759Z" fill="#ffbc1f"/><path d="M209.174,89.206c-1.533,1.5-3.1,2.97-4.631,4.471.1-.1,3.577,3.226,3.737,3.066,1.533-1.5,3.1-2.97,4.63-4.471-.127.1-3.576-3.225-3.736-3.066Z" fill="#3f67f2"/><path d="M161.46,74.148c-1.533,1.5-3.1,2.97-4.631,4.471.1-.1,3.577,3.226,3.737,3.066,1.533-1.5,3.1-2.97,4.631-4.471-.128.1-3.577-3.226-3.737-3.066Z" fill="#3f67f2"/><path d="M86.881,118.683c-1.146,1.122-2.316,2.221-3.462,3.343.072-.072,2.674,2.411,2.793,2.292,1.146-1.123,2.316-2.221,3.462-3.343-.1.072-2.674-2.411-2.793-2.292Z" fill="#3f67f2"/><path d="M252.363,161.868c-3.034,1.341-6.1,2.683-9.133,4.056-.448.192.99,4.6.606,4.79,3.034-1.341,6.1-2.682,9.134-4.056.447-.191-.99-4.6-.607-4.79Z" fill="#3f67f2"/><path d="M223.856,144.418a9.653,9.653,0,0,0-7.505,6.291c-.16.415,4.088,2.4,3.96,2.747a9.7,9.7,0,0,1,7.5-6.292c-.319.064-1.66-1.182-1.98-1.4-.319-.256-1.533-1.437-1.98-1.341Z" fill="#ff8164"/><path d="M158.981,112.26q-1.771,3.5-3.544,6.994c-.192.384,3.8,2.843,3.64,3.162q1.773-3.5,3.545-6.994c.192-.383-3.832-2.842-3.641-3.162Z" fill="#3f67f2"/><path d="M395.569,94.826c1.716-.555,3.452-1.109,5.169-1.665-.011.01-.692-2.036-.732-2.038-1.717.555-3.453,1.11-5.169,1.665.02,0,.7,2.047.732,2.038Z" fill="#ff8164"/><path d="M133.133,124.925c1.717-.556,3.453-1.11,5.169-1.665-.01.01-.691-2.036-.732-2.038-1.716.555-3.452,1.109-5.169,1.664.021,0,.7,2.047.732,2.039Z" fill="#ff8164"/><path d="M126.485,146.36c10.634,1.789,18.555,12.072,18.523,22.739a26.649,26.649,0,0,1-5.366,15.489,29.792,29.792,0,0,1-2.427,2.906c-.255.288-2.108,2.012-.1.192,1.757-1.6.575-.543.128-.192-.67.511-1.373.99-2.108,1.469a20.807,20.807,0,0,1-8.654,3.322c-3.258.351-6.515-.607-8.464-3.322a7.064,7.064,0,0,1-1.373-3.609,5.181,5.181,0,0,1,.224-1.98c.351-1.149,1.98-2.714-.575-.447l-1.341,1.15c5.365-4.12,11.369.766,14.4,5.3a29.045,29.045,0,0,1,4.663,14.34A33.419,33.419,0,0,1,131.5,218.5a31.3,31.3,0,0,1-3.673,6.547,26.916,26.916,0,0,1-2.459,2.907c-.256.287-.575.542-.83.83-.16.191,3-2.523,1.628-1.5-.638.479-1.245.958-1.916,1.373-4.758,3.13-12.615,5.525-16.671,0-1.405-1.916-2.108-4.631-1.022-6.866.128-.256.256-.447.384-.671.99-1.788-3.482,2.363-2.108,1.821a12.107,12.107,0,0,1,1.5-.607A7.158,7.158,0,0,1,110,222.5c6.26,1.853,6.643,9.038,4.472,14.212-2.555,6.1-7.985,10.379-10.7,16.415-5.142,11.5-2.172,26.028,7.217,34.428.16.159,3.482-3.29,3.609-3.194a30.351,30.351,0,0,1-9.645-24.718,28.543,28.543,0,0,1,4.088-12.839c2.939-4.759,7.314-8.655,9.294-13.988,1.629-4.376,1.5-10.124-3-12.711a7.41,7.41,0,0,0-5.621-.862c-2.012.575-3.641,2.459-5.142,3.832a5.765,5.765,0,0,0-2.2,4.6,8.08,8.08,0,0,0,2.618,5.493c4.056,3.705,10.348,1.884,14.532-.575a44.572,44.572,0,0,0,9.612-8.048A31.013,31.013,0,0,0,135.523,214a32.061,32.061,0,0,0-.735-24.431c-1.948-4.088-5.142-8.719-9.772-9.932-4.376-1.15-8.016,1.948-10.763,5.014-3.1,3.481-.351,8.686,3.449,10.251,5.046,2.076,10.954-.7,15.074-3.64,7.6-5.4,14.34-12.967,15.521-22.548a23.736,23.736,0,0,0-12.008-23.377,19.262,19.262,0,0,0-6.323-2.14c-.32-.063-1.565,1.374-1.821,1.6-.1.16-1.341,1.629-1.66,1.565Z" fill="#ffbc1f"/><path d="M369.863,270.775c3.668,3.228,9.151,7.467,14.251,4.258,2.137-1.342,2.4-3.578,2.741-5.833a4.7,4.7,0,0,0-1.935-4.648c-2.177-1.38-4.515.2-5.482,2.158a13,13,0,0,0-.968,3.229,24.981,24.981,0,0,0-.585,3.675,30.344,30.344,0,0,0,3.81,16.061,30.917,30.917,0,0,0,5.08,6.826,15.181,15.181,0,0,0,6.591,4.278,7.29,7.29,0,0,0,6.934-1.614,4.9,4.9,0,0,0,1.33-2.567,15.527,15.527,0,0,0,.565-3.325,4.467,4.467,0,0,0-3.266-4.1c-2.1-.467-3.648,1.166-4.092,2.994a14.66,14.66,0,0,0-.463,6.728,24.459,24.459,0,0,0,3.346,7.273A36.1,36.1,0,0,0,410.1,318.1c4.455,2.587,11.167,3.773,13.223,8.984a6.478,6.478,0,0,1,.4,1.633,4.6,4.6,0,0,0,.04.759c.081.447.282-1.478.322-1.517a2.4,2.4,0,0,0-.181.486c-.383.895-.181,2-.564,2.9a15.385,15.385,0,0,0,.766-3.151,7.3,7.3,0,0,0,.141-2.722,8.278,8.278,0,0,0-3.407-5.075c-2.1-1.556-4.616-2.431-6.994-3.52a35.913,35.913,0,0,1-16.953-16.023,16.579,16.579,0,0,1-2.2-6.533c-.02-.447.021-.875.021-1.3.02,2.061-.545,2.119-.162,1.225a3.67,3.67,0,0,1,.323-.622,3.463,3.463,0,0,1,2.257-1.536,4,4,0,0,1,4.072,2.353,3.739,3.739,0,0,1,.383,1.127c.04.214.04.428.061.642.121,1.128.846-2.431.221-1.322a5.913,5.913,0,0,1-2.2,2.333c-4.555,2.664-9.454-.6-12.558-3.811a31.183,31.183,0,0,1-7.458-12.892,29.922,29.922,0,0,1-1.209-7.662c-.02-.544-.02-1.089,0-1.614a6.8,6.8,0,0,1,.06-.914c.182-1.925-.584,1.712-.06.467a6.67,6.67,0,0,1,1.854-2.956,3.542,3.542,0,0,1,5.281.856,5.3,5.3,0,0,1,.807,2.683c.08,1.167.806-2.469.282-1.4a4.085,4.085,0,0,1-.464.817,5.5,5.5,0,0,1-1.169,1.186,8.282,8.282,0,0,1-7.277.856c-2.862-.934-5.14-2.956-7.337-4.881a7.038,7.038,0,0,1-.3,1.439c-.02.117-.383,1.264-.262,1.381Z" fill="#30d6af"/><path d="M346.269,126.243c-4.311-.511-8.271,1.533-11.145,4.663-3.29,3.577-4.855,8.08-5.557,12.806-1.406,9.389.032,19.737-5.685,27.945a14.411,14.411,0,0,1-10.156,6.291c-4.5.543-8.974-.735-13.381-1.533-4.344-.8-8.91-1.245-13.03.671-3.865,1.788-6.675,5.173-9.2,8.495-2.938,3.832-5.621,7.824-9.8,10.411-3.929,2.459-8.943,3.673-12.967.735a10.506,10.506,0,0,1-.159,2.395c-.032.319-.351,2.235-.1,2.4,3.417,2.523,7.665,2.012,11.3.192,3.992-1.98,6.8-5.174,9.454-8.687,2.555-3.385,5.014-6.994,8.495-9.549,3.64-2.683,7.888-3.321,12.3-2.81,8.4.958,17.98,5.077,24.974-1.885,6.643-6.579,6.547-16.638,7.122-25.293.384-5.749,1.31-11.625,4.855-16.352,2.938-3.9,7.345-6.738,12.359-6.131a45.714,45.714,0,0,0,.319-4.759Z" fill="#ff8164"/><path d="M361.441,82.912c1.328.066,2.669.146,4,.212.08,0,.266-2.655.306-2.655-1.328-.066-2.669-.146-4-.212-.08,0-.279,2.655-.306,2.655Z" fill="#ff8164"/><path d="M323.109,80.659a8.147,8.147,0,0,0,7.92,3.609c.288-.032,1.022-2.682,1.15-3s.83-3,1.086-3.034a8.117,8.117,0,0,1-7.92-3.609c.159.256-1.022,2.651-1.15,3-.16.415-1.341,2.65-1.086,3.033Z" fill="#ffbc1f"/><path d="M335.706,61.9a2.1,2.1,0,0,0,2.038.928c.074-.008.263-.69.3-.772a4.119,4.119,0,0,1,.279-.781,2.089,2.089,0,0,1-2.038-.928,3.77,3.77,0,0,1-.3.772c-.041.107-.345.682-.279.781Z" fill="#ffbc1f"/><path d="M381.592,116.441c2.211.33,4.447.66,6.658,1.016.026,0,.61-3.787.559-3.787-2.211-.33-4.447-.66-6.658-1.016,0-.026-.585,3.761-.559,3.787Z" fill="#ff8164"/><path d="M329.247,118.323c.99,1.98,1.98,3.928,2.97,5.908a9.288,9.288,0,0,0,2.4.255,11.011,11.011,0,0,1,2.395.192c-.99-1.98-1.98-3.928-2.97-5.908a9.328,9.328,0,0,0-2.395-.256c-.256-.032-2.268.032-2.4-.191Z" fill="#ffbc1f"/><path d="M287.97,74.314c.83,2.363,1.66,4.726,2.491,7.122.1.287,1.948.734,2.235.862.319.128,2.172.511,2.268.83-.831-2.363-1.661-4.726-2.491-7.122-.1-.287-1.949-.734-2.236-.862-.319-.128-2.172-.543-2.267-.83Z" fill="#ff8164"/><path d="M361.535,141.956c2.14,1.5,4.279,3.034,6.419,4.535.351.255,3.385-3.354,3.673-3.13-2.14-1.5-4.28-3.034-6.419-4.535-.352-.256-3.386,3.321-3.673,3.13Z" fill="#ff8164"/><path d="M321.2,104.177c2.14,1.5,4.28,3.034,6.419,4.535.352.256,3.385-3.353,3.673-3.13-2.14-1.5-4.28-3.033-6.419-4.535-.352-.255-3.386,3.322-3.673,3.13Z" fill="#ff8164"/></g></svg>