<svg xmlns="http://www.w3.org/2000/svg" width="17.49" height="17.49" viewBox="0 0 17.49 17.49"><path d="M12.557,8.776a8.888,8.888,0,0,0-1.028-.413,4.646,4.646,0,1,0-5.563,0A8.886,8.886,0,0,0,.045,14.987a2.076,2.076,0,0,0,2.029,2.5h8.414a.683.683,0,1,0,0-1.366H2.074a.694.694,0,0,1-.547-.26.714.714,0,0,1-.145-.6A7.548,7.548,0,0,1,8.564,9.288q.09,0,.181,0t.183,0a7.442,7.442,0,0,1,3.042.722.683.683,0,0,0,.587-1.234ZM8.912,7.921l-.167,0-.165,0a3.279,3.279,0,1,1,.332,0Z" transform="translate(0)" fill="#fff"/><g transform="translate(11 11)"><path d="M327.807,324.562h-1.879v-1.879a.683.683,0,1,0-1.366,0v1.879h-1.879a.683.683,0,0,0,0,1.366h1.879v1.879a.683.683,0,1,0,1.366,0v-1.879h1.879a.683.683,0,0,0,0-1.366Z" transform="translate(-322 -322)" fill="#fff"/></g></svg>