<svg xmlns="http://www.w3.org/2000/svg" width="48" height="63" viewBox="0 0 48 63"><g transform="translate(0 0.305)"><text transform="translate(24 60.695)" fill="#0071ce" font-size="10" font-family="Objectivity-Regular, Objectivity"><tspan x="-14.78" y="0">Gmail</tspan></text><circle cx="24" cy="24" r="24" transform="translate(0 -0.305)" fill="#0071ce"/><path d="M152.327,169.52h-19.1a2.085,2.085,0,0,0-2.079,2.079v11.954a2.085,2.085,0,0,0,2.079,2.079h19.1a2.085,2.085,0,0,0,2.079-2.079V171.6A2.085,2.085,0,0,0,152.327,169.52Z" transform="translate(-118.927 -153.729)" fill="#fff"/><path d="M142.789,180.918l11.616-8.994V171.6a2.085,2.085,0,0,0-2.079-2.079h-.463l-8.8,7.51-9.153-7.51h-.691a2.085,2.085,0,0,0-2.079,2.079v11.954a2.085,2.085,0,0,0,2.079,2.079h.82V173.976Z" transform="translate(-118.927 -153.73)" fill="#dd4b40"/><path d="M350.21,206.95V195.32l-3.148,2.437v11.271h1.069A2.085,2.085,0,0,0,350.21,206.95Z" transform="translate(-314.732 -177.125)" fill="#a43026"/></g></svg>