<svg xmlns="http://www.w3.org/2000/svg" width="21" height="21" viewBox="0 0 21 21"><g transform="translate(24.547 24.626)"><circle cx="10.5" cy="10.5" r="10.5" transform="translate(-24.547 -24.626)" fill="#0071ce"/><path d="M8.871,9.1a.8.8,0,0,1-.319-.063,1.457,1.457,0,0,1-.717-1,2.471,2.471,0,0,0-1-1.258A3.188,3.188,0,0,1,5.86,5.715a2.627,2.627,0,0,1-.344-1.233,2.1,2.1,0,1,1,4.193,0h.839a2.935,2.935,0,1,0-5.871,0,3.471,3.471,0,0,0,.449,1.635,4,4,0,0,0,1.2,1.321,1.689,1.689,0,0,1,.717.86A2.282,2.282,0,0,0,8.183,9.787a1.679,1.679,0,0,0,2.365-1.531H9.709A.841.841,0,0,1,8.871,9.1ZM4.946,1.815l-.6-.6a4.616,4.616,0,0,0,0,6.525l.591-.591a3.776,3.776,0,0,1,0-5.338ZM6.564,4.482A1.048,1.048,0,1,0,7.613,3.434,1.049,1.049,0,0,0,6.564,4.482Z" transform="translate(-20.938 -19.75)" fill="#fff"/><path d="M0,0H10.064V10.064H0Z" transform="translate(-19.196 -19.042)" fill="none"/></g></svg>