<svg xmlns="http://www.w3.org/2000/svg" width="20" height="20" viewBox="0 0 20 20"><g transform="translate(-25.499 -25.499)"><path d="M14.667,16.87a1.586,1.586,0,0,1-.633-.125,2.9,2.9,0,0,1-1.425-1.983,4.91,4.91,0,0,0-1.992-2.5,6.334,6.334,0,0,1-1.933-2.108A5.22,5.22,0,0,1,8,7.7a4.167,4.167,0,0,1,8.333,0H18A5.766,5.766,0,0,0,12.167,1.87,5.766,5.766,0,0,0,6.333,7.7a6.9,6.9,0,0,0,.892,3.25A7.944,7.944,0,0,0,9.6,13.578a3.356,3.356,0,0,1,1.425,1.708A4.536,4.536,0,0,0,13.3,18.245,3.336,3.336,0,0,0,18,15.2H16.333a1.672,1.672,0,0,1-1.667,1.667ZM6.867,2.4,5.683,1.22a9.174,9.174,0,0,0,0,12.967l1.175-1.175A7.5,7.5,0,0,1,6.867,2.4Zm3.217,5.3A2.083,2.083,0,1,0,12.167,5.62,2.084,2.084,0,0,0,10.083,7.7Z" transform="translate(24.999 25.296)" fill="#fff"/><path d="M0,0H20V20H0Z" transform="translate(25.499 25.499)" fill="none"/></g></svg>