<svg xmlns="http://www.w3.org/2000/svg" width="17" height="17" viewBox="0 0 17 17"><g transform="translate(22.684 22.684)"><circle cx="8.5" cy="8.5" r="8.5" transform="translate(-22.684 -22.684)" fill="#0071ce"/><path d="M7.859,7.738a.66.66,0,0,1-.264-.052A1.206,1.206,0,0,1,7,6.859a2.045,2.045,0,0,0-.829-1.041,2.638,2.638,0,0,1-.805-.878,2.174,2.174,0,0,1-.285-1.02,1.735,1.735,0,0,1,3.47,0h.694a2.429,2.429,0,1,0-4.859,0A2.873,2.873,0,0,0,4.76,5.273a3.308,3.308,0,0,0,.989,1.093,1.4,1.4,0,0,1,.593.711A1.889,1.889,0,0,0,7.289,8.31,1.389,1.389,0,0,0,9.247,7.043H8.553a.7.7,0,0,1-.694.694ZM4.61,1.713,4.117,1.22a3.821,3.821,0,0,0,0,5.4l.489-.489a3.125,3.125,0,0,1,0-4.418ZM5.95,3.92a.868.868,0,1,0,.868-.868A.868.868,0,0,0,5.95,3.92Z" transform="translate(-20.684 -18.904)" fill="#fff"/><path d="M0,0H8.329V8.329H0Z" transform="translate(-18.684 -18.684)" fill="none"/></g></svg>