<svg xmlns="http://www.w3.org/2000/svg" width="86" height="86" viewBox="0 0 86 86"><g transform="translate(25.499 25.499)"><g transform="translate(-25.499 -25.499)" fill="none" stroke="#0071ce" stroke-width="3" opacity="0.614"><circle cx="43" cy="43" r="43" stroke="none"/><circle cx="43" cy="43" r="41.5" fill="none"/></g><circle cx="38" cy="38" r="38" transform="translate(-20.499 -20.499)" fill="#0071ce"/><path d="M23.418,28.609a2.776,2.776,0,0,1-1.108-.219c-1.035-.54-1.765-1.283-2.494-3.471a8.593,8.593,0,0,0-3.486-4.375,11.086,11.086,0,0,1-3.383-3.69,9.135,9.135,0,0,1-1.2-4.288,7.292,7.292,0,0,1,14.584,0h2.917A10.092,10.092,0,0,0,19.042,2.358,10.092,10.092,0,0,0,8.834,12.566a12.072,12.072,0,0,0,1.56,5.688,13.9,13.9,0,0,0,4.156,4.594,5.874,5.874,0,0,1,2.494,2.99c.875,2.654,2,4.142,3.981,5.177a5.838,5.838,0,0,0,8.225-5.323H26.334a2.925,2.925,0,0,1-2.917,2.917ZM9.767,3.291,7.7,1.22a16.055,16.055,0,0,0,0,22.693l2.056-2.056A13.133,13.133,0,0,1,9.767,3.291ZM15.4,12.566A3.646,3.646,0,1,0,19.042,8.92,3.647,3.647,0,0,0,15.4,12.566Z" transform="translate(1.375 0.559)" fill="#fff"/><path d="M0,0H35V35H0Z" fill="none"/></g></svg>