<svg xmlns="http://www.w3.org/2000/svg" width="50" height="68.829" viewBox="0 0 50 68.829"><path d="M24.457,68.829c-3.99,0-8.6-3.511-13.71-10.442A87.462,87.462,0,0,1,4.209,47.918C1.274,44.4.045,41.228.555,38.491a6.246,6.246,0,0,1,2.317-3.784A22.733,22.733,0,0,1,7.336,6.922,25.558,25.558,0,0,1,25,0,25.558,25.558,0,0,1,42.664,6.922,22.74,22.74,0,0,1,46.5,35.769h0c2.053,1.316,3.08,2.857,3.054,4.583-.025,1.667-1.032,3.4-3,5.142a19.08,19.08,0,0,1-2.647,1.955,85.044,85.044,0,0,1-5.849,10.338c-4.8,7.153-9.281,10.865-13.324,11.036C24.647,68.827,24.552,68.829,24.457,68.829ZM25,1.385A24.177,24.177,0,0,0,8.288,7.929,21.348,21.348,0,0,0,4.323,34.455l.1.162v.751l-.358.2a4.8,4.8,0,0,0-2.148,3.2c-.421,2.322.726,5.12,3.408,8.318l.05.06.036.07a85.739,85.739,0,0,0,6.467,10.363c4.867,6.6,9.3,10.009,12.81,9.86S32.433,63.691,36.9,57.03a83,83,0,0,0,5.842-10.355l.093-.2.2-.111c1.416-.807,5.1-3.463,5.136-6.029.018-1.269-.87-2.459-2.64-3.534l-.252-.153-.065-.288s-.045-.2-.128-.553l-.068-.287.16-.247A21.355,21.355,0,0,0,41.712,7.929,24.176,24.176,0,0,0,25,1.385Z" transform="translate(0 0)" fill="#fff"/><path d="M42.09,21.3a75.487,75.487,0,0,0-1.57-7.913c-1.244-4.81-2.718-8.067-4.289-9.5a17.016,17.016,0,0,1-3.236,2.792A18.583,18.583,0,0,1,22.571,9.8c-.17,0-.342,0-.516-.007a13.772,13.772,0,0,1-9.981-4.215A13.365,13.365,0,0,1,9.886,2.484C7.559,4.952.229,13.386,1.535,20.376l-1.357.265a13.6,13.6,0,0,1,.786-7.064A28.937,28.937,0,0,1,4.3,7.211,44.609,44.609,0,0,1,9.627.75L10.4,0l.352,1.029A11.231,11.231,0,0,0,13.111,4.64a12.365,12.365,0,0,0,8.978,3.741A16.76,16.76,0,0,0,35.574,2.5l.387-.53.542.36c2.073,1.376,3.874,4.979,5.355,10.709a76.952,76.952,0,0,1,1.6,8.072Z" transform="translate(2.921 14.711)" fill="#fff"/><circle cx="2.374" cy="2.374" r="2.374" transform="translate(13.73 37.629)" fill="#fff"/><circle cx="2.374" cy="2.374" r="2.374" transform="translate(30.865 37.629)" fill="#fff"/></svg>