<svg xmlns="http://www.w3.org/2000/svg" width="30" height="30.471" viewBox="0 0 30 30.471"><path d="M.866,17.418a2.183,2.183,0,0,0,1.352.93,2.2,2.2,0,0,0,1.464,3.164A2.2,2.2,0,0,0,3.8,23.748a2.181,2.181,0,0,0,1.352.93,2.2,2.2,0,0,0,3.159,2.854l2.188-1.449a13.67,13.67,0,0,0,3.694,1.25,10.157,10.157,0,0,0,1.41,1.705l.905.877A1.98,1.98,0,0,0,19.531,27.4l-.07-.109A13.784,13.784,0,1,0,3.75,9.1a.474.474,0,1,0,.891.322A12.853,12.853,0,0,1,20.77,1.6L16.915,4.154h0l-3.2,2.122h0a1.292,1.292,0,0,0-.364,1.791l.042.064-.622.412a2.11,2.11,0,0,1-1.5.325,3.055,3.055,0,0,0-2.177.471L3.923,12.758A12.863,12.863,0,0,1,4.1,11.427a.474.474,0,0,0-.379-.552.462.462,0,0,0-.087-.008.474.474,0,0,0-.465.388,13.857,13.857,0,0,0-.226,2.155l-1.455.963a2.2,2.2,0,0,0-.619,3.046Zm10.547,8.057,1.448-.959.285.768a10.14,10.14,0,0,0,.407.942A12.718,12.718,0,0,1,11.413,25.475Zm15-3.285a12.837,12.837,0,0,1-7.409,4.224,5.853,5.853,0,0,1-.3-3.545l1.155-4.991a1.29,1.29,0,0,0,1.654.193L24.793,15.9h0l4.719-3.125c.026.333.039.668.039,1A12.832,12.832,0,0,1,26.417,22.19ZM14.086,7.285a.343.343,0,0,1,.148-.219h0L17.047,5.2l5.223,7.789a.474.474,0,0,0,.787-.528L17.837,4.68l4.017-2.66a12.875,12.875,0,0,1,7.535,9.723l-4.725,3.119-.544-.811a.474.474,0,0,0-.787.528l.54.806L21,17.282a.345.345,0,0,1-.478-.1l-6.384-9.64A.342.342,0,0,1,14.086,7.285ZM1.473,15.956a1.242,1.242,0,0,1,.535-.793l1.663-1.1h0l5.935-3.931a2.109,2.109,0,0,1,1.5-.325,3.057,3.057,0,0,0,2.177-.471l.622-.412,5.229,7.9-1.352,5.839a6.807,6.807,0,0,0,.5,4.469.464.464,0,0,0,.02.042,6.7,6.7,0,0,0,.434.758,1.033,1.033,0,0,1-1.58,1.312l-.905-.877a9.257,9.257,0,0,1-2.222-3.4l-.493-1.328,0-.007,0-.009c0-.008-.007-.016-.01-.022a.467.467,0,0,0-.033-.059.473.473,0,0,0-.657-.133L7.782,26.743A1.25,1.25,0,1,1,6.4,24.658l.439-.291h0l.978-.648,0,0,.015-.011a.474.474,0,0,0-.542-.776l-.979.649a1.25,1.25,0,0,1-1.38-2.085l1.418-.939a.474.474,0,1,0-.523-.79l-.219.145-.759.5a1.25,1.25,0,0,1-1.38-2.085l.708-.469.011-.007.7-.462a.474.474,0,1,0-.523-.79l-.219.145h0l-.759.5a1.25,1.25,0,0,1-1.915-1.291Zm0,0" transform="translate(-0.5 0)" fill="#fff"/></svg>