<svg xmlns="http://www.w3.org/2000/svg" width="9.911" height="17.49" viewBox="0 0 9.911 17.49"><g transform="translate(-110.933)"><g transform="translate(114.14 0.874)"><path d="M208.007,25.6h-2.915a.291.291,0,1,0,0,.583h2.915a.291.291,0,1,0,0-.583Z" transform="translate(-204.801 -25.6)" fill="#343434"/></g><g transform="translate(118.804 0.874)"><path d="M341.917,25.6h-.291a.291.291,0,0,0,0,.583h.291a.291.291,0,1,0,0-.583Z" transform="translate(-341.334 -25.6)" fill="#343434"/></g><g transform="translate(114.723 14.866)"><path d="M223.4,435.2h-.724a.805.805,0,0,0-.8.8v.141a.8.8,0,0,0,.8.8h.724a.805.805,0,0,0,.8-.8V436A.805.805,0,0,0,223.4,435.2Zm.221.945a.221.221,0,0,1-.221.221h-.724a.221.221,0,0,1-.221-.221V436a.221.221,0,0,1,.221-.221h.724a.221.221,0,0,1,.221.221Z" transform="translate(-221.867 -435.2)" fill="#343434"/></g><g transform="translate(110.933)"><path d="M119.791,0h-7.8a1.055,1.055,0,0,0-1.054,1.054V16.436a1.055,1.055,0,0,0,1.054,1.054h7.8a1.055,1.055,0,0,0,1.054-1.053V1.054A1.055,1.055,0,0,0,119.791,0Zm.47,16.436a.471.471,0,0,1-.47.471h-7.8a.471.471,0,0,1-.471-.47V1.054a.471.471,0,0,1,.471-.471h7.8a.471.471,0,0,1,.471.471V16.436Z" transform="translate(-110.933)" fill="#343434"/></g><g transform="translate(110.933 1.749)"><g transform="translate(0)"><path d="M120.553,51.2h-9.328a.292.292,0,0,0-.291.291V63.734a.292.292,0,0,0,.291.291h9.328a.292.292,0,0,0,.291-.291V51.491A.292.292,0,0,0,120.553,51.2Zm-.291,12.243h-8.745V51.783h8.745Z" transform="translate(-110.934 -51.2)" fill="#343434"/></g></g></g></svg>