<svg xmlns="http://www.w3.org/2000/svg" width="27" height="27" viewBox="0 0 27 27"><g transform="translate(11.017 8.035)"><rect width="27" height="27" transform="translate(-11.017 -8.035)" fill="#fff" opacity="0.002"/><g transform="translate(89.647 -26.678)"><path d="M-79.169,32.244s-1.545-.461-1.418-1.392a2.927,2.927,0,0,0-.656-2.413,4.138,4.138,0,0,0-5.821,0,4.6,4.6,0,0,0-.677,5.567s1.651,2.163.19,3.188a4.783,4.783,0,0,0,2.6,2.189s.635-2.18,1.5-1.99c0,0,2.413.656,3.09-.381,0,0-.169-1.058.148-1.4,0,0-1.376-.169-1.355-.974,0,0,1.228.233,1.439-.381l.042-.965S-78.978,32.81-79.169,32.244Z" transform="translate(0 0)" fill="#343434"/><path d="M-43.827,62.578l-.7-.7a1.152,1.152,0,0,0,0-1.627l.7-.7A2.147,2.147,0,0,1-43.827,62.578Z" transform="translate(-35.272 -26.001)" fill="#343434"/><path d="M-36.98,59.3l-.7-.7a2.65,2.65,0,0,0,0-3.744l.7-.7A3.646,3.646,0,0,1-36.98,59.3Z" transform="translate(-40.777 -21.66)" fill="#343434"/><path d="M-29.117,56.218l-.7-.7a4.056,4.056,0,0,0,0-5.728l.7-.7A5.049,5.049,0,0,1-29.117,56.218Z" transform="translate(-47.099 -17.589)" fill="#343434"/></g></g></svg>