<svg xmlns="http://www.w3.org/2000/svg" width="108" height="108" viewBox="0 0 108 108"><g transform="translate(11 10.919)"><g transform="translate(-11 -10.919)" fill="none" stroke="#0071ce" stroke-width="10" opacity="0.5"><circle cx="54" cy="54" r="54" stroke="none"/><circle cx="54" cy="54" r="49" fill="none"/></g><circle cx="38" cy="38" r="38" transform="translate(5 5.081)" fill="#0071ce"/><path d="M0,0H35V35H0Z" transform="translate(25.499 25.034)" fill="none"/><g transform="translate(28 26.813)"><g transform="translate(87.865 -25.218)"><path d="M-67.276,38.733s-3.536-1.054-3.245-3.185a6.7,6.7,0,0,0-1.5-5.522c-1.211-1.162-7.508-5.716-13.32,0s-1.55,12.739-1.55,12.739,3.778,4.95.436,7.295c0,0,2.083,3.943,5.958,5.008,0,0,1.453-4.989,3.439-4.553,0,0,5.522,1.5,7.072-.872,0,0-.387-2.422.339-3.2,0,0-3.148-.387-3.1-2.228,0,0,2.809.533,3.294-.872l.1-2.209S-66.84,40.029-67.276,38.733Z" transform="translate(0 0)" fill="#fff"/><path d="M-42.921,66.485l-1.608-1.608a2.636,2.636,0,0,0,0-3.722l1.609-1.608A4.913,4.913,0,0,1-42.921,66.485Z" transform="translate(-24.195 -17.835)" fill="#fff"/><path d="M-36.075,65.929l-1.608-1.608a6.065,6.065,0,0,0,0-8.567l1.608-1.608A8.342,8.342,0,0,1-36.075,65.929Z" transform="translate(-27.971 -14.858)" fill="#fff"/><path d="M-28.211,65.408-29.82,63.8a9.281,9.281,0,0,0,0-13.107l1.608-1.608A11.555,11.555,0,0,1-28.211,65.408Z" transform="translate(-32.308 -12.065)" fill="#fff"/></g></g></g></svg>