<svg xmlns="http://www.w3.org/2000/svg" width="50.003" height="55.16" viewBox="0 0 50.003 55.16"><g transform="translate(0 0)"><circle cx="1.887" cy="1.887" r="1.887" transform="translate(30.733 31.309)" fill="#343434"/><circle cx="1.887" cy="1.887" r="1.887" transform="translate(15.791 31.309)" fill="#343434"/><path d="M1676.872,2019.247h-.094a8.747,8.747,0,0,1-5.069-1.96,20.743,20.743,0,0,1-3.906-4,35.85,35.85,0,0,1-3.547-5.694l-.008-.017c-2.484-5.473-2.889-9.92-1.2-13.218a9.2,9.2,0,0,1,6.195-4.621,25.778,25.778,0,0,0,7.629-2.548,17.1,17.1,0,0,0,4.434-3.354,11.264,11.264,0,0,0,2.615-4.181l.3-1.161,1.019.593c.246.142,6.011,3.6,6.414,15.525a30.057,30.057,0,0,1-2.09,11.694,28.254,28.254,0,0,1-5.6,9.174C1681.614,2017.946,1679.162,2019.247,1676.872,2019.247Zm-10.978-12.474a34.554,34.554,0,0,0,3.359,5.38c3.283,4.27,5.919,5.2,7.553,5.223h.064c1.766,0,3.823-1.137,5.8-3.208a26.35,26.35,0,0,0,5.205-8.553,28.135,28.135,0,0,0,1.962-10.94c-.106-3.122-.694-7.582-2.9-11.1a11.2,11.2,0,0,0-1.749-2.181,14.575,14.575,0,0,1-2.48,3.63,18.849,18.849,0,0,1-4.91,3.771,27.5,27.5,0,0,1-8.246,2.779h-.005a7.468,7.468,0,0,0-4.9,3.667,8.4,8.4,0,0,0-.778,4.353A20.9,20.9,0,0,0,1665.894,2006.774Z" transform="translate(-1651.593 -1964.088)" fill="#343434"/><path d="M1528.472,1783.038c-.165,0-.33,0-.5-.005l.042-1.837a25.807,25.807,0,0,0,13.885-4.168c-2.008-2.549-2.94-6.964-2.772-13.152a65.782,65.782,0,0,1,.974-9.435c.018-4.878-1.224-8.528-3.692-10.849a10.617,10.617,0,0,0-7.268-2.724l-.547.035-.292-.462c-2.581-4.084-9.785-5.357-10.025-5.4a12.348,12.348,0,0,0-6.453.892,17.8,17.8,0,0,0-6.029,4.184,20.7,20.7,0,0,0-4.78,8.129,21.319,21.319,0,0,0-.526,10.547c2.292,11.712-1.071,16.578-2.856,18.258,1.735,1.392,4.616,2.521,8.423,3.295a48.411,48.411,0,0,0,6.419.849l-.091,1.835c-.506-.025-12.441-.664-16.843-5.417l-.829-.895,1.066-.537a6.968,6.968,0,0,0,2.437-3.243c1.8-4.183,1.246-9.809.467-13.793a23.127,23.127,0,0,1,.575-11.445,22.552,22.552,0,0,1,5.207-8.854c4.058-4.234,9.326-6.335,14.093-5.622l.015,0c.324.054,7.76,1.328,10.992,5.8a12.4,12.4,0,0,1,8.107,3.229c2.868,2.7,4.3,6.83,4.269,12.28v.085l-.016.083a64.743,64.743,0,0,0-.958,9.247c-.167,6.274.853,10.62,2.951,12.567l.8.741-.867.662a26.012,26.012,0,0,1-4.6,2.642A26.454,26.454,0,0,1,1528.472,1783.038Z" transform="translate(-1494.717 -1733.088)" fill="#343434"/></g></svg>